<?xml version="1.0" encoding="UTF-8" standalone="no"?>
<!DOCTYPE svg PUBLIC "-//W3C//DTD SVG 1.1//EN" "http://www.w3.org/Graphics/SVG/1.1/DTD/svg11.dtd">
<svg width="100%" height="100%" viewBox="0 0 546 289" version="1.1" xmlns="http://www.w3.org/2000/svg" xmlns:xlink="http://www.w3.org/1999/xlink" xml:space="preserve" xmlns:serif="http://www.serif.com/" style="fill-rule:evenodd;clip-rule:evenodd;stroke-linejoin:round;stroke-miterlimit:2;">
    <g id="Artboard1" transform="matrix(1,0,0,1,-20.2905,-153.197)">
        <rect x="20.29" y="153.197" width="545.647" height="288.3" style="fill:none;"/>
        <g transform="matrix(1,0,0,1,-6.19409,-52.6428)">
            <g transform="matrix(0.782237,0,0,0.304092,-117.833,79.6409)">
                <path d="M275.755,877.278L275.755,773.304L236.038,773.304L236.038,542.911L194.214,542.911L194.214,877.278L275.755,877.278ZM314.37,791.364L277.761,884.76L191.306,884.76L191.306,536.977L227.914,443.065L274.953,443.065L274.953,673.458L314.37,673.458L314.37,791.364Z" style="fill:white;fill-rule:nonzero;"/>
                <path d="M482.166,877.278L435.127,542.911L378.058,542.911L331.019,877.278L381.97,877.278L386.884,833.418L428.206,833.418L433.121,877.278L482.166,877.278ZM521.883,790.59L484.874,884.76L430.814,884.76L425.9,841.416L401.026,841.416L383.775,884.76L326.706,884.76L375.751,536.461L412.159,443.065L472.939,443.065L521.883,790.59ZM419.38,753.696L395.911,753.696L407.646,648.69L419.38,753.696Z" style="fill:white;fill-rule:nonzero;"/>
                <path d="M655.579,542.911L607.537,542.911L585.973,702.354L564.61,542.911L516.568,542.911L561.501,877.278L610.445,877.278L655.579,542.911ZM695.497,443.065L648.257,792.396L612.05,884.76L559.495,884.76L512.656,538.267L549.465,443.065L602.422,443.065L612.451,518.143L641.638,443.065L695.497,443.065Z" style="fill:white;fill-rule:nonzero;"/>
                <path d="M835.511,877.278L788.472,542.911L731.403,542.911L684.364,877.278L735.315,877.278L740.229,833.418L781.551,833.418L786.466,877.278L835.511,877.278ZM875.228,790.59L838.219,884.76L784.159,884.76L779.245,841.416L754.371,841.416L737.12,884.76L680.051,884.76L729.096,536.461L765.504,443.065L826.284,443.065L875.228,790.59ZM772.725,753.696L749.256,753.696L760.991,648.69L772.725,753.696Z" style="fill:white;fill-rule:nonzero;"/>
            </g>
            <g transform="matrix(1,0,0,1,-121.313,-228.245)">
                <g transform="matrix(1,0,0,1,419.062,682.636)">
                    <path d="M0,-23.754C0.52,-24.186 1.059,-24.402 1.622,-24.402C2.185,-24.402 2.681,-24.228 3.115,-23.884C3.547,-23.537 3.871,-23.125 4.088,-22.65C4.304,-22.174 4.368,-21.677 4.283,-21.158C4.196,-20.639 3.894,-20.162 3.374,-19.731C-2.855,-14.798 -9.844,-12.462 -17.586,-12.722C-25.331,-12.982 -32.103,-15.749 -37.898,-21.028C-41.013,-17.307 -43.631,-12.852 -45.75,-7.66C-47.872,-2.469 -49.494,2.897 -50.618,8.434C-50.792,9.472 -51.311,10.166 -52.175,10.511C-53.039,10.857 -53.862,10.769 -54.641,10.251C-55.419,9.731 -55.81,8.91 -55.81,7.785C-55.462,-3.982 -53.169,-17.524 -48.93,-32.839C-48.67,-33.877 -48.066,-34.439 -47.113,-34.526C-46.162,-34.611 -45.341,-34.287 -44.646,-33.553C-43.956,-32.817 -43.738,-31.973 -43.998,-31.022C-45.471,-25.743 -46.724,-20.594 -47.763,-15.577C-45.341,-19.99 -42.658,-23.709 -39.715,-26.738C-39.196,-27.258 -38.569,-27.473 -37.833,-27.388C-37.1,-27.301 -36.516,-26.998 -36.081,-26.48C-31.323,-21.288 -25.483,-18.433 -18.56,-17.913C-11.639,-17.394 -5.451,-19.341 0,-23.754" style="fill:white;fill-rule:nonzero;"/>
                </g>
                <g transform="matrix(1,0,0,1,430.223,680.384)">
                    <path d="M0,-23.189C-1.213,-23.102 -2.53,-22.367 -3.958,-20.983C-5.386,-19.598 -6.619,-18.083 -7.658,-16.44C-5.84,-15.575 -3.635,-16.613 -1.039,-19.555C0.691,-21.544 1.168,-22.755 0.39,-23.189L0,-23.189ZM41.143,-22.411C41.922,-23.189 42.743,-23.384 43.608,-22.995C44.473,-22.605 45.015,-21.957 45.231,-21.048C45.446,-20.139 45.209,-19.251 44.518,-18.387C26.691,-0.13 11.292,7.441 -1.687,4.326C-6.274,3.288 -9.734,1.276 -12.07,-1.71C-14.407,-4.695 -15.335,-8.024 -14.861,-11.704C-14.384,-15.38 -12.675,-18.907 -9.734,-22.281C-7.397,-24.79 -4.37,-26.824 -0.648,-28.381C4.888,-30.63 7.612,-29.245 7.527,-24.228L7.527,-23.968C7.44,-20.593 5.406,-17.392 1.428,-14.364C-2.554,-11.334 -6.145,-10.34 -9.345,-11.378C-9.691,-7.485 -8.047,-4.585 -4.413,-2.683C-0.778,-0.779 3.2,-0.217 7.527,-0.996C13.671,-2.119 19.403,-4.52 24.725,-8.199C30.046,-11.876 35.517,-16.613 41.143,-22.411" style="fill:white;fill-rule:nonzero;"/>
                </g>
                <g transform="matrix(1,0,0,1,517.699,681.921)">
                    <path d="M0,-24.597C0.951,-26.067 2.162,-26.239 3.634,-25.116C4.932,-24.077 5.147,-22.865 4.283,-21.482C0.303,-15.337 -5.408,-8.892 -12.849,-2.143C-26.002,9.971 -35.995,14.036 -42.83,10.056C-45.944,8.24 -48.193,4.65 -49.579,-0.715C-51.222,-6.859 -50.702,-13.305 -48.021,-20.054C-45.341,-26.803 -41.317,-31.994 -35.951,-35.628C-32.664,-37.877 -29.96,-38.633 -27.84,-37.9C-25.72,-37.163 -24.205,-35.606 -23.297,-33.228C-22.389,-30.846 -22.063,-27.927 -22.323,-24.467C-22.41,-23.428 -22.907,-22.735 -23.816,-22.39C-24.725,-22.043 -25.59,-22.151 -26.412,-22.714C-27.234,-23.277 -27.602,-24.077 -27.515,-25.116C-27.343,-27.971 -27.927,-29.743 -29.267,-30.437C-30.609,-31.128 -32.167,-30.998 -33.939,-30.047C-35.714,-29.095 -37.249,-27.797 -38.547,-26.154C-41.402,-22.606 -43.394,-18.15 -44.517,-12.785C-45.296,-9.237 -45.275,-5.842 -44.452,-2.598C-43.631,0.647 -41.986,3.071 -39.521,4.671C-37.055,6.273 -33.615,6.033 -29.202,3.957C-23.751,1.361 -18.495,-2.533 -13.433,-7.724C-8.371,-12.915 -3.894,-18.539 0,-24.597" style="fill:white;fill-rule:nonzero;"/>
                </g>
                <g transform="matrix(1,0,0,1,512.896,662.996)">
                    <path d="M0,23.142C1.642,24.615 4.108,23.619 7.397,20.157C11.204,16.178 13.238,12.025 13.498,7.697C13.757,3.978 12.155,1.337 8.695,-0.22C8.002,0.559 7.268,1.49 6.489,2.571C5.71,3.654 4.802,4.971 3.764,6.529C2.726,8.086 1.816,9.644 1.038,11.202C0.259,12.759 -0.39,14.296 -0.909,15.809C-1.428,17.324 -1.623,18.729 -1.493,20.027C-1.363,21.325 -0.866,22.363 0,23.142M8.565,-5.8C12.632,-4.762 15.487,-2.274 17.132,1.662C18.774,5.6 18.861,9.559 17.392,13.538C16.094,17.346 14.146,20.851 11.551,24.05C8.955,27.252 6.013,28.94 2.726,29.112C-0.649,29.287 -3.095,28.119 -4.607,25.608C-6.122,23.1 -6.577,20.202 -5.971,16.913C-4.76,10.163 -1.256,3.414 4.542,-3.335C4.715,-3.507 4.932,-3.68 5.191,-3.854C5.795,-5.497 6.921,-6.145 8.565,-5.8" style="fill:white;fill-rule:nonzero;"/>
                </g>
                <g transform="matrix(1,0,0,1,591.548,682.636)">
                    <path d="M0,-23.754C0.52,-24.186 1.059,-24.402 1.622,-24.402C2.185,-24.402 2.681,-24.228 3.115,-23.884C3.547,-23.537 3.871,-23.125 4.088,-22.65C4.303,-22.174 4.368,-21.677 4.283,-21.158C4.196,-20.639 3.894,-20.162 3.374,-19.731C-2.855,-14.798 -9.844,-12.462 -17.586,-12.722C-25.331,-12.982 -32.103,-15.749 -37.898,-21.028C-41.014,-17.307 -43.631,-12.852 -45.751,-7.66C-47.872,-2.469 -49.494,2.897 -50.618,8.434C-50.792,9.472 -51.311,10.166 -52.175,10.511C-53.039,10.857 -53.862,10.769 -54.641,10.251C-55.42,9.731 -55.81,8.91 -55.81,7.785C-55.463,-3.982 -53.169,-17.524 -48.931,-32.839C-48.671,-33.877 -48.066,-34.439 -47.113,-34.526C-46.162,-34.611 -45.341,-34.287 -44.647,-33.553C-43.956,-32.817 -43.739,-31.973 -43.998,-31.022C-45.471,-25.743 -46.724,-20.594 -47.763,-15.577C-45.341,-19.99 -42.658,-23.709 -39.716,-26.738C-39.196,-27.258 -38.569,-27.473 -37.834,-27.388C-37.1,-27.301 -36.516,-26.998 -36.081,-26.48C-31.323,-21.288 -25.483,-18.433 -18.561,-17.913C-11.639,-17.394 -5.451,-19.341 0,-23.754" style="fill:white;fill-rule:nonzero;"/>
                </g>
                <g transform="matrix(1,0,0,1,620.555,619.551)">
                    <path d="M0,71.129C-1.083,64.208 -1.775,57.871 -2.077,52.115C-2.381,46.362 -2.316,39.506 -1.882,31.544C-1.45,23.584 -0.974,17.095 -0.454,12.076C0.064,7.059 0.844,0.266 1.882,-8.301C2.432,-12.429 3.01,-17.173 3.615,-22.508C3.189,-22.698 2.704,-22.852 2.154,-22.971C1.041,-23.21 -0.641,-22.951 -1.337,-22.432C-1.536,-22.283 -1.704,-22.114 -1.854,-21.934C-4.76,0.627 -8.787,19.464 -13.952,34.529C-18.885,48.721 -24.553,58.498 -30.955,63.861C-33.984,66.372 -36.104,67.495 -37.314,67.235C-39.304,66.632 -38.872,63.04 -36.017,56.463C-32.643,48.504 -28.057,43.484 -22.259,41.408C-20.789,40.717 -20.399,39.591 -21.091,38.033C-21.784,36.564 -22.908,36.087 -24.466,36.606C-29.657,38.51 -34.222,42.469 -38.158,48.482C-42.095,54.496 -44.019,60.315 -43.934,65.938C-43.847,68.793 -43.198,70.87 -41.987,72.168C-40.774,73.466 -39.304,73.942 -37.574,73.596C-35.845,73.251 -34.05,72.557 -32.188,71.519C-30.328,70.481 -28.663,69.141 -27.191,67.495C-18.712,58.585 -12.006,46.904 -7.073,32.452C-8.112,56.074 -5.775,76.147 -0.065,92.675C0.279,93.713 0.929,94.252 1.882,94.297C2.832,94.339 3.634,93.992 4.283,93.259C4.932,92.523 5.081,91.636 4.737,90.598C2.66,84.54 1.08,78.051 0,71.129" style="fill:white;fill-rule:nonzero;"/>
                </g>
                <g transform="matrix(1,0,0,1,655.79,649.602)">
                    <path d="M0,45.75C1.123,44.537 1.946,43.371 2.466,42.246C2.984,41.122 3.157,40.062 2.984,39.065C2.811,38.072 2.486,37.142 2.012,36.275C1.535,35.412 0.799,34.546 -0.195,33.68C-1.19,32.816 -2.164,32.058 -3.115,31.408C-4.068,30.76 -5.191,30.046 -6.489,29.267C-8.826,31.259 -11.032,33.118 -13.108,34.848C-13.455,35.195 -14.04,35.714 -14.861,36.405C-15.685,37.099 -16.354,37.661 -16.873,38.093C-17.392,38.526 -17.934,39.11 -18.495,39.845C-19.059,40.581 -19.513,41.295 -19.857,41.986C-21.762,46.225 -21.567,49.255 -19.273,51.071C-16.982,52.889 -13.888,53.278 -9.994,52.24C-6.794,51.461 -3.462,49.297 0,45.75M11.681,9.021C12.545,8.415 13.453,8.328 14.406,8.761C15.357,9.194 15.899,9.844 16.029,10.707C16.159,11.573 15.834,12.352 15.055,13.043C8.738,17.456 2.984,21.739 -2.207,25.893C0.13,27.365 2.054,28.813 3.568,30.24C5.082,31.668 6.424,33.29 7.592,35.107C8.761,36.925 9.17,38.916 8.826,41.077C8.479,43.242 7.397,45.403 5.58,47.567C3.764,49.729 1.383,51.74 -1.558,53.602C-4.5,55.462 -7.593,56.89 -10.838,57.886C-14.082,58.879 -17.177,58.814 -20.117,57.69C-23.06,56.565 -25.179,54.271 -26.477,50.812C-28.467,45.361 -25.568,39.089 -17.781,31.992C-15.879,30.35 -13.715,28.488 -11.292,26.411C-11.466,26.326 -12.59,25.721 -14.666,24.595C-16.743,23.472 -18.128,22.692 -18.819,22.259C-19.513,21.827 -20.616,21.09 -22.129,20.052C-23.644,19.014 -24.834,18.021 -25.698,17.066C-26.564,16.115 -27.343,15.077 -28.034,13.952C-30.715,9.279 -29.245,4.045 -23.622,-1.752C-18.776,-6.77 -13.196,-10.015 -6.879,-11.486C0.042,-13.129 4.412,-11.616 6.229,-6.943C6.489,-6.165 6.704,-5.299 6.878,-4.348C6.964,-3.31 6.619,-2.509 5.84,-1.947C5.062,-1.384 4.195,-1.254 3.244,-1.558C2.291,-1.86 1.772,-2.531 1.687,-3.569C0.993,-8.327 -3.375,-8.284 -11.422,-3.439C-14.971,-1.363 -17.651,0.584 -19.469,2.4C-21.026,3.958 -22.129,5.301 -22.778,6.424C-23.427,7.55 -23.602,8.782 -23.297,10.123C-22.995,11.466 -22.064,12.871 -20.507,14.342C-19.728,15.035 -18.819,15.749 -17.781,16.482C-16.743,17.219 -15.856,17.803 -15.12,18.235C-14.386,18.669 -13.304,19.296 -11.876,20.117C-10.448,20.94 -9.52,21.479 -9.086,21.739C-8.826,21.827 -8.459,22.021 -7.982,22.323C-7.508,22.628 -7.139,22.822 -6.879,22.907C-1.168,18.322 5.017,13.692 11.681,9.021" style="fill:white;fill-rule:nonzero;"/>
                </g>
            </g>
        </g>
    </g>
</svg>
